<svg xmlns="http://www.w3.org/2000/svg" width="612" height="612" viewBox="0 0 612 612">
<g>
<path d="M 348.03 454.95 C315.55,458.98 279.36,449.83 249.00,429.92 C236.86,421.96 216.72,401.95 208.82,390.00 C198.11,373.81 190.88,356.85 186.43,337.50 C183.98,326.81 183.67,323.47 183.61,307.00 C183.54,285.96 184.95,276.42 190.69,259.08 C205.24,215.20 241.60,178.82 285.50,164.21 C302.98,158.40 309.41,157.50 333.50,157.50 C355.07,157.50 355.74,157.57 368.09,160.76 C375.01,162.55 383.56,165.17 387.09,166.59 C410.56,176.05 433.34,192.47 447.92,210.45 C454.13,218.11 461.00,228.17 461.00,229.61 C461.00,230.81 337.75,354.00 336.55,354.00 C336.03,354.00 336.12,353.48 336.75,352.85 C337.61,351.99 332.28,346.10 315.20,329.04 C302.71,316.57 291.86,305.41 291.07,304.24 C290.28,303.07 289.24,302.35 288.76,302.65 C287.82,303.23 282.75,303.94 283.22,303.42 C283.37,303.25 299.02,287.48 318.00,268.38 L 352.50 233.66 L 349.00 232.89 C328.07,228.30 304.39,233.54 287.46,246.51 C273.09,257.52 263.64,272.22 259.53,290.00 C257.72,297.83 257.55,312.91 259.19,320.20 C259.85,323.12 260.30,325.84 260.19,326.25 C260.09,326.66 260.34,327.00 260.75,327.00 C261.16,327.00 261.56,328.06 261.63,329.35 C262.07,336.91 278.04,359.25 288.28,366.60 C313.20,384.51 348.43,385.60 373.29,369.23 C376.71,366.98 398.86,345.65 427.33,317.21 C453.87,290.69 476.10,269.00 476.72,269.00 C479.13,269.00 481.96,289.25 481.96,306.50 C481.97,329.53 477.38,349.86 467.42,370.93 C456.25,394.55 438.36,415.19 416.00,430.25 C395.50,444.05 374.60,451.65 348.03,454.95 ZM 200.00 455.07 C200.00,455.68 187.38,456.02 166.00,455.97 C147.30,455.93 132.00,455.58 132.00,455.19 C132.00,454.80 140.03,446.46 149.84,436.66 C161.93,424.59 167.63,419.51 167.53,420.90 C167.44,422.03 166.99,423.31 166.53,423.73 C166.06,424.15 166.05,423.87 166.49,423.10 C167.03,422.17 166.93,421.93 166.20,422.38 C164.54,423.40 165.87,425.84 167.81,425.36 C168.94,425.09 173.45,428.94 181.37,436.95 C187.90,443.55 194.76,450.11 196.62,451.53 C198.48,452.94 200.00,454.54 200.00,455.07 ZM 286.00 302.62 C286.00,303.45 286.82,302.92 288.13,301.25 C289.37,299.66 289.34,299.63 287.75,300.87 C286.79,301.63 286.00,302.41 286.00,302.62 Z" fill="rgb(67,25,190)"/>
<path d="M 402.34 289.15 C397.54,293.95 392.58,298.92 387.50,304.00 C347.08,344.42 314.00,377.79 314.00,378.14 C314.00,378.28 314.41,378.48 315.10,378.70 C305.55,376.46 296.37,372.42 288.28,366.60 C278.04,359.25 262.07,336.91 261.63,329.35 C261.56,328.06 261.16,327.00 260.75,327.00 C260.34,327.00 260.09,326.66 260.19,326.25 C260.28,325.92 260.01,324.13 259.56,321.93 C260.05,323.73 260.56,325.00 260.83,325.00 C261.20,324.99 281.98,304.44 307.00,279.33 L 346.58 239.61 L 318.00 268.38 C299.02,287.48 283.37,303.25 283.22,303.42 C282.75,303.94 287.82,303.23 288.76,302.65 C289.24,302.35 290.28,303.07 291.07,304.24 C291.86,305.41 302.71,316.57 315.20,329.04 C332.28,346.10 337.61,351.99 336.75,352.85 C336.12,353.48 336.03,354.00 336.55,354.00 C337.17,354.00 370.38,321.11 402.34,289.15 ZM 200.00 455.07 C200.00,454.54 198.48,452.94 196.62,451.53 C194.76,450.11 187.90,443.55 181.37,436.95 C173.45,428.94 168.94,425.09 167.81,425.36 C165.87,425.84 164.54,423.40 166.20,422.38 C166.93,421.93 167.03,422.17 166.49,423.10 C166.05,423.87 166.06,424.15 166.53,423.73 C166.99,423.31 167.44,422.03 167.53,420.90 C167.63,419.51 161.94,424.58 149.87,436.63 C167.68,418.67 192.63,394.00 193.26,394.00 C193.73,394.00 193.84,394.44 193.51,394.98 C192.88,396.01 235.74,439.47 240.37,442.50 C241.82,443.46 242.69,444.73 242.32,445.36 C241.95,445.99 242.63,445.64 243.83,444.60 C248.04,440.90 245.93,444.22 240.33,450.09 L 234.67 456.03 L 183.26 455.98 C180.55,455.98 177.94,455.97 175.43,455.97 C191.04,455.91 200.00,455.59 200.00,455.07 ZM 297.00 369.94 C297.00,370.52 297.67,371.00 298.50,371.00 C301.93,371.00 300.30,369.01 285.33,354.88 C283.22,352.90 280.23,349.86 278.69,348.13 C277.14,346.41 275.56,345.00 275.17,345.00 C274.79,345.00 273.36,343.20 272.00,341.00 C269.66,337.21 265.99,335.53 266.01,338.25 C266.03,340.37 274.26,352.64 279.00,357.63 C283.96,362.84 294.75,370.27 296.13,369.42 C296.61,369.13 297.00,369.36 297.00,369.94 ZM 286.00 302.62 C286.00,302.41 286.79,301.63 287.75,300.87 C289.34,299.63 289.37,299.66 288.13,301.25 C286.82,302.92 286.00,303.45 286.00,302.62 ZM 352.48 233.67 L 349.00 232.90 C341.31,231.19 332.08,230.91 323.46,231.93 C332.01,230.80 340.72,231.07 349.00,232.89 L 352.50 233.66 ZM 305.33 236.56 C297.99,239.52 291.36,243.38 285.53,248.04 C286.16,247.52 286.80,247.01 287.46,246.51 C292.84,242.39 298.90,239.05 305.33,236.56 ZM 348.07 379.38 C357.19,377.53 365.92,374.07 373.37,369.17 C373.43,369.13 373.50,369.08 373.58,369.02 C373.47,369.10 373.38,369.17 373.29,369.23 C365.66,374.25 357.05,377.63 348.07,379.38 ZM 258.08 304.34 C258.19,299.00 258.68,293.69 259.53,290.00 C258.69,293.63 258.20,298.97 258.08,304.34 Z" fill="rgb(109,77,204)"/>
<path d="M 245.95 445.51 L 235.59 456.03 L 234.67 456.03 L 240.33 450.09 C245.93,444.22 248.04,440.90 243.83,444.60 C242.63,445.64 241.95,445.99 242.32,445.36 C242.69,444.73 241.82,443.46 240.37,442.50 C235.74,439.47 192.88,396.01 193.51,394.98 C193.84,394.44 193.73,394.00 193.26,394.00 C192.63,394.00 167.68,418.67 149.87,436.63 L 149.84 436.66 C148.73,437.77 147.65,438.86 146.59,439.92 C152.56,433.75 159.95,426.17 167.90,418.05 L 203.30 381.91 L 200.03 375.04 C202.65,380.13 205.57,385.10 208.82,390.00 C216.72,401.95 236.86,421.96 249.00,429.92 C264.64,440.18 281.83,447.58 299.26,451.79 C288.07,449.16 277.06,445.22 266.40,439.96 L 256.30 434.98 ZM 297.00 369.94 C297.00,369.36 296.61,369.13 296.13,369.42 C294.75,370.27 283.96,362.84 279.00,357.63 C274.26,352.64 266.03,340.37 266.01,338.25 C265.99,335.53 269.66,337.21 272.00,341.00 C273.36,343.20 274.79,345.00 275.17,345.00 C275.56,345.00 277.14,346.41 278.69,348.13 C280.23,349.86 283.22,352.90 285.33,354.88 C300.30,369.01 301.93,371.00 298.50,371.00 C297.67,371.00 297.00,370.52 297.00,369.94 ZM 413.89 431.64 C414.60,431.18 415.30,430.72 416.00,430.25 C438.36,415.19 456.25,394.55 467.42,370.93 C455.70,395.71 436.98,416.72 413.89,431.64 ZM 348.44 454.90 C358.08,453.68 366.98,451.89 375.38,449.44 C366.50,452.12 357.49,453.93 348.44,454.90 ZM 194.08 362.06 C191.09,354.93 189.19,348.93 187.18,340.64 C189.04,348.10 191.32,355.21 194.08,362.06 Z" fill="rgb(152,127,222)"/>
<path d="M 0.00 306.00 L 0.00 0.00 L 306.00 0.00 L 612.00 0.00 L 612.00 306.00 L 612.00 612.00 L 306.00 612.00 L 0.00 612.00 L 0.00 306.00 ZM 245.95 445.51 L 256.30 434.98 L 266.40 439.96 C302.62,457.82 342.90,460.59 380.50,447.81 C418.83,434.77 450.46,406.80 467.42,370.93 C477.38,349.86 481.97,329.53 481.96,306.50 C481.96,289.25 479.13,269.00 476.72,269.00 C476.10,269.00 453.87,290.69 427.33,317.21 C399.21,345.30 376.70,366.98 373.37,369.17 C358.44,378.98 338.38,383.04 320.33,379.90 C316.85,379.29 314.00,378.50 314.00,378.14 C314.00,377.79 347.08,344.42 387.50,304.00 C427.92,263.58 461.00,230.10 461.00,229.61 C461.00,228.17 454.13,218.11 447.92,210.45 C433.34,192.47 410.56,176.05 387.09,166.59 C383.56,165.17 375.01,162.55 368.09,160.76 C355.74,157.57 355.07,157.50 333.50,157.50 C309.41,157.50 302.98,158.40 285.50,164.21 C241.60,178.82 205.24,215.20 190.69,259.08 C184.95,276.42 183.54,285.96 183.61,307.00 C183.67,323.50 183.98,326.80 186.44,337.50 C189.63,351.33 192.21,358.64 198.68,372.21 L 203.30 381.91 L 167.90 418.05 C148.43,437.93 132.36,454.58 132.18,455.06 C132.00,455.55 154.78,455.95 183.72,455.98 L 235.59 456.03 L 245.95 445.51 ZM 259.08 319.95 C257.54,312.77 257.77,297.63 259.53,290.00 C265.63,263.61 283.54,243.93 309.61,234.96 C321.00,231.04 336.89,230.21 349.00,232.90 L 352.50 233.67 L 307.00 279.33 C281.98,304.44 261.20,324.99 260.83,325.00 C260.47,325.00 259.68,322.73 259.08,319.95 Z" fill="rgb(238,234,249)"/>
</g>
</svg>
